<svg width="145" height="25" viewBox="0 0 145 25" fill="none" xmlns="http://www.w3.org/2000/svg">
<path d="M24.4619 0H0.538066C0.240695 0 0 0.247814 0 0.55398V10.978C0 11.2842 0.240695 11.532 0.538066 11.532H2.38292V24.446C2.38292 24.7518 2.62361 25 2.92098 25H22.3079C22.6049 25 22.8459 24.7518 22.8459 24.446V11.532H24.4619C24.7589 11.532 25 11.2842 25 10.978V0.55398C25 0.247814 24.7589 0 24.4619 0ZM21.7698 23.892H3.45905V11.532H9.2386C9.41831 11.532 9.58655 11.4397 9.68627 11.2853L12.6144 6.76446L15.5426 11.2853C15.6423 11.4393 15.8105 11.532 15.9903 11.532H21.7695V23.892H21.7698ZM23.9239 10.4241H16.2783L13.0621 5.45855C12.8623 5.15017 12.3662 5.15053 12.1668 5.45855L8.95056 10.4241H1.07613V1.10796H23.9239V10.4241V10.4241Z" fill="white"/>
<path d="M15.0953 13.3793H10.1336C9.83621 13.3793 9.59552 13.6275 9.59552 13.9333V21.5982C9.59552 21.904 9.83621 22.1522 10.1336 22.1522H15.0956C15.3926 22.1522 15.6337 21.904 15.6337 21.5982V13.9333C15.6333 13.6275 15.3923 13.3793 15.0953 13.3793ZM14.5572 21.0442H10.6717V14.4873H14.5576V21.0442H14.5572Z" fill="white"/>
<path d="M42.5164 13.6912C35.6142 13.6912 30 18.5706 30 24.5695C30 24.7991 30.2312 25 30.4954 25H54.5045C54.7687 25 54.9999 24.7991 54.9999 24.5695C55.0329 18.5706 49.4186 13.6912 42.5164 13.6912ZM42.5164 14.5522C44.0356 14.5522 45.5217 14.8106 46.8427 15.2985L42.6816 17.9679L38.2232 15.2985C39.5442 14.8106 40.9973 14.5522 42.5164 14.5522ZM31.0238 24.1389C31.1889 20.4937 33.6658 17.3364 37.1664 15.7003L42.4174 18.8289C42.5164 18.8863 42.6155 18.915 42.6816 18.915C42.7806 18.915 42.8797 18.8863 42.9788 18.8289L47.8665 15.7003C51.4001 17.3077 53.844 20.465 54.0091 24.1389H31.0238Z" fill="white"/>
<path d="M42.3183 12.5144C46.2813 12.5144 49.5177 9.70149 49.5177 6.25718C49.5177 2.81286 46.2813 0 42.3183 0C38.3553 0 35.1189 2.81286 35.1189 6.25718C35.1189 9.7302 38.3553 12.5144 42.3183 12.5144ZM42.3183 0.889782C44.9603 0.889782 47.206 2.32491 48.0977 4.3341C47.8004 4.19059 47.4372 4.01837 47.1069 3.84615C45.7199 3.12859 44.7621 2.66935 44.1347 2.72675C42.8797 2.81286 42.1532 3.2434 41.3606 3.67394C40.9313 3.90356 40.4689 4.16188 39.9075 4.3628L39.7424 4.42021C38.5204 4.85075 37.7609 5.13777 36.2747 5.28129C36.7701 2.78416 39.28 0.889782 42.3183 0.889782ZM36.1096 6.14237C37.893 5.99885 38.7846 5.68312 40.0726 5.19518L40.2377 5.13777C40.8982 4.90815 41.3936 4.62113 41.8559 4.3628C42.5825 3.96097 43.21 3.61653 44.2007 3.55913C44.564 3.53043 45.8189 4.19059 46.5785 4.56372C47.3381 4.96556 47.9656 5.28129 48.4279 5.3961C48.494 5.68312 48.527 5.97015 48.527 6.25718C48.527 9.21355 45.7529 11.6533 42.3183 11.6533C38.8837 11.6533 36.1096 9.24225 36.1096 6.25718C36.1096 6.22847 36.1096 6.19977 36.1096 6.14237Z" fill="white"/>
<path d="M84.55 0H64.1823C63.9337 0 63.7325 0.277309 63.7325 0.619917V4.02243C63.7325 4.36504 63.9337 4.64235 64.1823 4.64235C64.4308 4.64235 64.632 4.36504 64.632 4.02243V1.23983H84.1005V16.8539H82.2428C81.9945 16.8539 81.7931 17.1316 81.7931 17.4738C81.7931 17.816 81.9945 18.0937 82.2428 18.0937H84.5503C84.7985 18.0937 85 17.816 85 17.4738V0.619917C84.9997 0.277309 84.7985 0 84.55 0Z" fill="white"/>
<path d="M81.0906 5.19656H60.4497C60.2012 5.19656 60 5.47387 60 5.81648V24.3801C60 24.7223 60.2012 25 60.4497 25H81.0906C81.3388 25 81.5403 24.7223 81.5403 24.3801V5.81648C81.5403 5.47387 81.3388 5.19656 81.0906 5.19656ZM80.6408 6.4364V19.4439L77.2849 19.4431L74.296 16.024C74.1319 15.8364 73.8945 15.8343 73.7281 16.0162L70.8192 19.2154L66.4118 12.5236C66.3266 12.3942 66.2061 12.3206 66.0796 12.3202C66.0793 12.3202 66.0789 12.3202 66.0786 12.3202C65.9524 12.3202 65.8322 12.3934 65.747 12.5215L60.8995 19.8221V6.4364H80.6408ZM60.8995 23.7602V21.6582L66.0775 13.8601L70.4369 20.4796C70.597 20.7222 70.8654 20.7515 71.0503 20.5478L74.003 17.3002L76.8352 20.5403C76.9161 20.6329 77.0175 20.6833 77.1224 20.6833L80.6405 20.6846V23.761H60.8995V23.7602Z" fill="white"/>
<path d="M76.8969 13.0224C77.8798 13.0224 78.6797 11.9202 78.6797 10.565C78.6797 9.21032 77.8798 8.1077 76.8969 8.1077C75.9141 8.1077 75.1142 9.20991 75.1142 10.565C75.1142 11.9202 75.9141 13.0224 76.8969 13.0224ZM76.8969 9.34753C77.3841 9.34753 77.7802 9.89347 77.7802 10.565C77.7802 11.2366 77.3841 11.7826 76.8969 11.7826C76.4097 11.7826 76.0136 11.2362 76.0136 10.565C76.0136 9.89388 76.4097 9.34753 76.8969 9.34753Z" fill="white"/>
<path d="M113.629 0H103.962C103.205 0 102.589 0.855054 102.589 1.90621V3.50815H91.7624C90.7906 3.50815 90 4.6064 90 5.95667V17.2604C90 18.6099 90.7906 19.7078 91.7624 19.7078H93.4552V24.4481C93.4552 24.6667 93.5479 24.8642 93.6917 24.9529C93.7434 24.9845 93.7979 25 93.8522 25C93.9492 25 94.045 24.9507 94.1195 24.8565L98.1992 19.7078H105.299C106.27 19.7078 107.061 18.6099 107.061 17.2604V11.885H108.987L111.868 15.5205C111.943 15.6147 112.039 15.664 112.135 15.664C112.19 15.664 112.245 15.6485 112.296 15.6169C112.44 15.5286 112.533 15.3306 112.533 15.1121V11.885H113.629C114.385 11.885 115 11.0296 115 9.97844V1.90621C115 0.855054 114.385 0 113.629 0ZM106.267 17.26C106.267 18.001 105.832 18.6037 105.299 18.6037H98.0459C97.9471 18.6037 97.852 18.6548 97.7786 18.7472L94.2495 23.2009V19.1555C94.2495 18.8505 94.0718 18.6037 93.8522 18.6037H91.7622C91.2285 18.6037 90.7943 18.001 90.7943 17.26V5.95631C90.7943 5.21494 91.2285 4.61155 91.7622 4.61155H102.983C102.984 4.61155 102.985 4.61192 102.987 4.61192C102.988 4.61192 102.989 4.61155 102.991 4.61155H105.299C105.833 4.61155 106.267 5.21494 106.267 5.95631V17.26ZM114.206 9.97844C114.206 10.4211 113.947 10.7812 113.629 10.7812H112.136C111.916 10.7812 111.738 11.0281 111.738 11.3331V13.8652L109.408 10.9247C109.335 10.8328 109.24 10.7812 109.141 10.7812H107.061V5.95667C107.061 4.60676 106.27 3.50815 105.299 3.50815H103.384V1.90621C103.384 1.4636 103.643 1.10377 103.962 1.10377H113.629C113.947 1.10377 114.206 1.4636 114.206 1.90621V9.97844Z" fill="white"/>
<path d="M144.977 24.5359C144.991 24.4713 145 24.4031 145 24.3314V0.667682C145 0.595525 144.991 0.52693 144.977 0.461899C144.975 0.452991 144.974 0.444082 144.971 0.435174C144.953 0.359007 144.925 0.290413 144.891 0.230281C144.889 0.226273 144.889 0.221373 144.886 0.217365C144.885 0.215137 144.883 0.214246 144.882 0.212019C144.845 0.152333 144.802 0.104228 144.753 0.068149C144.75 0.0654765 144.747 0.0619129 144.743 0.0592404C144.697 0.0276157 144.647 0.00979931 144.595 0.00445429C144.59 0.00400887 144.585 0.00222672 144.579 0.00222672C144.575 0.0017813 144.57 0 144.565 0H120.435C120.43 0 120.426 0.0017813 120.421 0.00222672C120.416 0.00267214 120.412 0.00400887 120.407 0.00445429C120.354 0.00979931 120.303 0.0280615 120.257 0.0601316C120.254 0.0619133 120.251 0.0650309 120.249 0.0668126C120.199 0.102891 120.155 0.151887 120.119 0.212464C120.117 0.214691 120.115 0.215137 120.114 0.217365C120.112 0.220928 120.111 0.225827 120.109 0.229836C120.075 0.289968 120.047 0.359007 120.029 0.435174C120.026 0.444082 120.025 0.452991 120.023 0.462344C120.009 0.527375 120 0.59597 120 0.668128V24.3323C120 24.4054 120.01 24.4749 120.024 24.5408C120.026 24.5497 120.027 24.5581 120.029 24.5671C120.048 24.6437 120.076 24.7127 120.11 24.7728C120.112 24.7764 120.113 24.7809 120.115 24.7844C120.117 24.7875 120.119 24.7893 120.121 24.7924C120.135 24.8152 120.151 24.8352 120.167 24.8548C120.174 24.8633 120.181 24.8735 120.188 24.8815C120.207 24.902 120.228 24.9185 120.249 24.9336C120.254 24.9372 120.259 24.943 120.264 24.9461C120.317 24.9804 120.374 25 120.435 25H144.565C144.625 25 144.683 24.9808 144.736 24.9461C144.744 24.9408 144.751 24.9327 144.759 24.9265C144.777 24.9127 144.795 24.8984 144.811 24.8811C144.82 24.8717 144.828 24.8597 144.836 24.8495C144.851 24.8312 144.866 24.8129 144.878 24.792C144.881 24.7884 144.883 24.7858 144.886 24.7822C144.888 24.7782 144.889 24.7728 144.891 24.7688C144.925 24.7091 144.952 24.6405 144.971 24.5648C144.974 24.555 144.975 24.5457 144.977 24.5359ZM120.87 2.183L128.192 12.4548L120.87 22.8085V2.183ZM135.877 11.9515C135.847 11.9818 135.815 12.0071 135.79 12.0499C135.78 12.0659 135.777 12.0869 135.769 12.1038L132.5 16.6889L121.556 1.33581H143.444L135.877 11.9515ZM128.837 13.3594L132.207 18.0867C132.29 18.2034 132.395 18.2617 132.5 18.2617C132.605 18.2617 132.71 18.2034 132.793 18.0867L136.121 13.4182L143.442 23.6637H121.55L128.837 13.3594ZM136.766 12.5131L144.13 2.183V22.8192L136.766 12.5131Z" fill="white"/>
</svg>
